# xmcd
#
# Track frame offsets: 
#        150
#        12995
#        24414
#        39861
#        55560
#        68935
#        82395
#        94723
#        110704
#        127241
#
# Disc length: 1863 seconds
#
# Revision: 1
# Processed by: cddbd v1.5.2PL0 Copyright (c) Steve Scherf et al.
# Submitted via: ExactAudioCopy v0.90b4
#
DISCID=8307450a
DTITLE=Allison Moorer - Getting Somewhere
DYEAR=2006
DGENRE=Country
TTITLE0=Work to Do
TTITLE1=You'll Never Know
TTITLE2=Hallelujah
TTITLE3=Fairweather
TTITLE4=New Years Day
TTITLE5=How She Does It
TTITLE6=Where You Are
TTITLE7=Take It So Hard
TTITLE8=If It's Just for Today
TTITLE9=Getting Somewhere
EXTD=
EXTT0=
EXTT1=
EXTT2=
EXTT3=
EXTT4=
EXTT5=
EXTT6=
EXTT7=
EXTT8=
EXTT9=
PLAYORDER=
